<?xml version="1.0" encoding="utf-8"?>
<!-- Generator: Adobe Illustrator 23.0.5, SVG Export Plug-In . SVG Version: 6.00 Build 0)  -->
<svg version="1.0" id="Layer_1" xmlns="http://www.w3.org/2000/svg" xmlns:xlink="http://www.w3.org/1999/xlink" x="0px" y="0px"
	 viewBox="0 0 800 800" style="enable-background:new 0 0 800 800;" xml:space="preserve">
<g>
	<path d="M710.7227783,377.0589905c1.1737061-5.0269165-0.6002808-11.8424988-3.331665-16.4933777
		c-12.8932495-21.9526672-32.3570557-36.5708008-55.4291382-46.5975342
		c-4.1516724-1.8042297-5.3498535-4.1299744-4.8254395-8.6552124c4.0293579-34.7599792,7.6514893-69.5676117,11.7855835-104.3144989
		c0.6068115-5.0998077-0.8061523-7.9717712-4.338562-11.4723511c-18.9633179-18.793396-32.2567139-39.7224426-23.012085-68.1688766
		c1.8225098-5.6080627,3.0480347-11.419136,5.0405273-16.9597931c1.3186035-3.6670303,0.5079346-5.86203-2.8942871-7.3778992
		c-6.463623-2.8796692-12.6724854-6.7090683-19.4230957-8.5040283
		c-36.5101318-9.7076263-73.1290894-19.0096664-109.7723083-28.2058182
		c-6.9320068-1.7396774-14.7689514-1.7230415-11.6925049-13.3189392C460.7614746,49.150135,434.6044922,36.5728836,410.7836304,18
		c-22.4958496,26.2920761-52.990509,28.0189285-83.7846069,29.5980492c0.7609253,3.6637306,1.4057312,6.7691193,1.8651428,8.9816208
		c-25.3141174,7.0281906-50.3152466,13.1640129-74.7765808,20.9870949
		c-24.5270233,7.8440475-49.5810089,14.534584-70.8549957,24.8564377
		c2.9065399,11.2342453,8.4796906,21.2659225,7.304245,30.4321899
		c-3.2687988,25.4886932-13.6470642,46.5943298-39.7533722,52.8756256
		c-5.4235077,1.3048859-6.4141235,3.9754028-5.6603088,9.0449677
		c5.3533173,35.9997864,10.1423187,72.0867462,15.8299255,108.0322113
		c3.0534058,19.2975769,7.5304871,38.369812,11.4966125,58.2006226
		c17.3927612-3.5395813,33.4823761-6.8139343,50.0795593-10.1915588
		c-0.7115326-11.4148865-1.3918762-22.3269043-2.1831207-35.0176697
		c10.0770874,9.7976685,18.8787384,18.2329712,27.4747009,26.8729553c1.0368042,1.0420837,1.765152,3.5118408,1.2627716,4.7723694
		c-2.2810364,5.723053-4.6797333,11.1203003-12.9703522,9.7713928c-5.7595215-0.9371643-11.7987366-0.0358582-17.7059174-0.204895
		c-27.6937408-0.7927246-51.0613403,7.5229187-67.7749786,31.0003052c-1.7652435,2.4795532-6.1948395,4.0487061-9.5003662,4.2562256
		c-9.1161957,0.5722961-18.2918091,0.1979065-25.6879883,0.1979065c0,21.1760559-0.163063,41.4627991,0.1070938,61.7438049
		c0.0735626,5.5227356-0.8800583,8.7776794-6.7696381,11.1430969
		c-12.6412811,5.0770264-20.5333328,14.1418152-19.2605057,28.9399719c0.2422638,2.8166809-0.0687943,5.6763611,0.0193253,8.5116577
		c0.3347092,10.7698364,8.0313721,19.1970825,18.6479187,20.5426636c2.9997635,0.380249,5.9862747,0.8653564,9.7164612,1.4100952
		c-1.5557251,20.2166748-3.087532,40.1228638-4.727478,61.4335327c16.4392319,0,32.1955185,0,47.9955521,0
		c1.1999664,6.156311,2.0736084,11.024231,3.1035767,15.8588257c5.6992188,26.7539063,17.2948456,49.882019,40.2690887,66.1902466
		c6.3521729,4.5090332,11.9779205,10.0627441,18.4313049,14.4016113
		c6.5992889,4.4368896,13.4377289,8.9493408,20.8133698,11.7218018c25.2025146,9.4742432,50.36203,19.3001099,76.1514587,26.913147
		c28.6529236,8.458374,51.3565674,24.343811,69.5570374,47.5356445c3.56427,4.5418091,7.7927551,8.562561,11.9207458,13.0474243
		c4.2631531-5.3900757,8.2382813-9.8086548,11.5346375-14.6860352c17.07547-25.2644043,41.5127258-40.9329834,69.7275391-49.6881714
		c27.9129639-8.6615601,56.7073059-14.5484009,85.2331848-21.1413574
		c15.1849976-3.5095825,28.6265869-9.6138916,39.0147095-21.4957275
		c6.5327759-7.4718628,12.4191284-15.5903931,19.5181885-22.4660034
		c10.8580933-10.5162964,15.0046387-23.3913574,14.8287354-37.7996826
		c-0.4732666-38.7637939-1.402771-77.5219116-2.0701294-116.2836914c-0.1658325-9.6304321-0.0247803-19.2662048-0.0247803-28.978363
		c6.133667-0.2192993,8.9671631,2.1689453,8.7401123,9.1495667c-0.4919434,15.1235962-0.1687622,30.2740479-0.1566162,45.4135742
		c0.0074463,9.3002319,13.1608276,22.8462524,22.463623,23.1712646c16.791626,0.5865479,31.6193237-14.5895996,30.388916-31.28479
		c-1.8770752-25.4719543-3.4919434-50.9735413-6.041626-76.3799438c-0.916687-9.1357422,0.9343872-17.091217,4.0992432-25.3956299
		C703.2875366,401.8909912,707.7875977,389.6295776,710.7227783,377.0589905z M360.6808472,113.1768188
		c2.3165588,0.1131592,5.3332214,1.8539658,6.6603088,3.7864227c12.3071594,17.9181976,24.3500671,36.0186768,36.3496704,54.1455994
		c1.1017761,1.6641998,1.9164124,3.8728943,1.9396362,5.8396759c0.1644592,13.932724,0.0875244,27.8684235,0.0875244,43.2522125
		c-2.1086121-2.4324036-3.5003357-3.8149261-4.6372986-5.3821869
		c-21.7875977-30.0298004-43.6046753-60.0388031-65.2146912-90.1959763
		c-2.0898743-2.9165039-2.8587952-6.7795181-4.814209-11.6231079
		C342.7514038,112.9994583,351.7331238,112.740036,360.6808472,113.1768188z M221.288147,272.0912781
		c-2.0562897-2.4762573-3.52771-6.197937-3.6342773-9.3990784c-0.4141693-12.4260559-0.1686096-24.8740234-0.1686096-39.5602417
		c6.1700439,5.3108673,10.6499786,9.1668701,16.3238983,14.0507507c0.8200226-13.0603027,1.5637817-24.910675,2.3078918-36.7609711
		c-11.1135406-17.382019,5.3224945-31.470459,4.3624573-47.6385803c0.6221161-0.1155853,1.2442322-0.2310791,1.8663483-0.3465881
		c13.8955688,15.6649628,27.7913208,31.3299255,42.0790405,47.4370422
		c6.4842224-3.7222137,12.7684631-7.3298035,19.882782-11.4138489
		c-13.7860413-18.4603424-27.2830505-36.5334473-41.2319946-55.2118683
		c9.1815186-3.5690308,17.6878967-6.8756027,26.500824-10.3013229c13.837677,15.0177994,27.5783386,29.930336,41.2494812,44.7673111
		c0.5619812-0.3058624,0.8018188-0.3832397,0.9730225-0.5369415c13.5990906-12.2129059,12.4340515-14.5692444,24.8760376,1.9167786
		c12.7771301,16.9303436,23.359375,35.5056458,35.1785583,53.1761169
		c5.2625122,7.867691,11.2026062,15.2821503,16.8352966,22.9023132c1.0009155-0.3901672,2.0018616-0.7803345,3.0027771-1.1705017
		c0-8.1194-0.0618591-16.2394257,0.0109253-24.358139c0.2926941-32.6380157,0.7598877-65.2754211,0.8163757-97.9137039
		c0.0097046-5.4847641,1.7523193-7.2085037,7.0742798-7.7813187c24.7420654-2.6630554,49.0777893,1.0803909,73.4976807,3.9150085
		c24.0362549,2.7899933,47.5977173,7.2668152,69.8192139,17.4159851
		c7.0128174,3.2029572,11.5599365,7.0398102,12.9113159,15.5623779
		c3.6917725,23.2832947,16.4630127,42.4014435,30.0385132,61.047287c2.1154175,2.9056702,3.8299561,7.1781769,3.5089722,10.6109924
		c-2.3543091,25.181366-5.3108521,50.3058929-7.9776001,75.4589996c-0.4036255,3.8067932-0.8675537,6.1855469-5.8943481,6.8094177
		c-29.2943115,3.6354675-58.5154419,7.8573914-87.7805786,11.7368774c-1.5675964,0.2078552-3.8238525-0.3809814-4.8897705-1.4590454
		c-11.6282349-11.7601013-23.0829773-23.6918335-33.6964111-34.6587524c1.2660828-5.07901,3.7826233-9.4622498,2.5144653-11.5889893
		c-1.4584045-2.446106-6.2648315-2.8960571-10.4345703-4.5341797c-0.3601074-1.3832092-0.7231445-4.5302734-2.0273438-7.2212219
		c-1.0092468-2.0825348-3.1963806-3.594162-4.8599548-5.3594818c-1.7592773,1.9964905-3.8314819,3.8071289-5.1667175,6.0553131
		c-0.8773499,1.4771423-0.6914063,3.5858459-1.1487427,6.4628296c-13.075531-5.5056458-25.6256714-10.7388763-38.1274719-16.0857849
		c-3.7240295-1.5928192-7.1238403-3.3650665-11.1424561-0.249115c-1.023468,0.7934265-4.2068481,0.1278992-5.3708496-0.9629822
		c-1.1487427-1.0765686-1.8705139-3.9013062-1.2771606-5.3389435c4.5435486-11.0079193,1.2745667-15.26474-11.0896301-14.0104523
		c-0.4496765,0.045578-0.9193115-0.106842-2.1583252-0.268692c6.9729004-6.983139,3.5006409-13.6831055-0.1504211-20.2506104
		c-4.3170471-7.765625-8.8442993-15.4143829-13.2803955-23.1137238c-0.5586853,0.192688-1.1173706,0.3853912-1.6760864,0.578186
		c0,2.5193939,0,5.0387115,0,8.6802673c-6.4876709-4.1290283-10.474762-8.124527-10.9236145-15.3985291
		c-0.3025513-4.9042358-1.2802734-10.3306122-3.7929993-14.385025c-2.828125-4.5632935-7.4064941-3.7059326-10.0502319,1.0814209
		c-3.5188599,6.3721924-6.612793,12.978241-10.0834961,19.3786011c-0.6678467,1.2315826-2.0817566,2.3260956-3.4046631,2.8927612
		c-11.2485352,4.8185425-22.7223511,9.1478882-33.7712402,14.3790436c-5.15802,2.4421234-9.5289612,2.6010284-14.8368835,0.8375244
		c-9.6152649-3.1946259-19.4561462-5.7375183-29.2684631-8.301712c-5.6148224-1.4672546-8.7111969-0.0463562-8.6543579,6.8738708
		c0.1627197,19.8625183-0.7226257,39.7402039-0.2550812,59.5897369c0.1434784,6.0844421,2.6492767,12.4095764,5.2663269,18.0732727
		c4.4518738,9.6345825,9.9639282,18.7740784,14.7762299,28.2506104c1.362793,2.6835938,1.8433228,5.8152466,2.7283325,8.7414551
		c-0.5663452,0.2755432-1.1326599,0.5511475-1.6993103,0.8266907c-1.1395569-0.9881287-2.4203796-1.8540649-3.3970337-2.9831238
		C244.6093903,299.4433899,232.7683716,285.916748,221.288147,272.0912781z M268.4026794,277.4437256
		c5.0746765,6.7550964,9.2721558,14.1761475,13.7229614,21.3866272c0.7839966,1.269989,0.9429016,2.9256897,1.9064026,6.1070557
		c-12.2368164-2.6376648-19.5436707-9.3570557-23.7674866-18.4241028
		c-4.7319031-10.1577454-9.1768341-20.9003601-11.0185699-31.8475494
		c-2.7660828-16.4407043-3.157547-33.2810059-4.7949829-52.7622833c5.6832733,2.2720184,10.3063507,2.8437042,12.9993134,5.4272308
		c9.4884033,9.1022339,20.3206787,12.9838715,33.4906921,13.8518066
		c18.7601929,1.2365265,35.2769775,9.9125519,50.9986877,19.7808228
		c7.9579163,4.9949493,10.6541443,17.6724396,0.0117798,24.0095673c-3.1958313,1.9029846-5.9379883,4.5677795-10.6664429,8.2797852
		c4.4355774,2.2506104,7.6075134,5.1319275,10.934021,5.3231812c13.0339661,0.749115,21.568573,9.0343628,31.434082,15.973938
		c7.1212463,5.0091553,16.5032349,8.0030212,25.2440796,9.1894836c9.6083374,1.3042603,15.6208496-6.2954407,20.5513611-13.8512268
		c0.9116821-1.3971558,1.8625488-2.7687683,2.7955322-4.1521301c0.6526184,0.3187561,1.3052368,0.6374512,1.9578552,0.9561157
		c-1.0758057,2.5151672-1.7606506,5.3041992-3.2963562,7.497467c-6.2180481,8.880249-12.8294678,15.9779358-25.7511292,14.6625671
		c-22.0794678-2.2474976-44.3320007-2.7432861-66.492218-4.2616882
		c-12.9159546-0.8849792-22.9062195-13.1901855-25.0047607-25.8955688
		c-2.0484924-12.4011841-6.4140625-24.5325623-10.8307495-36.3841553
		c-2.3692322-6.3571167-6.1757507-6.2961273-10.4288635-0.9322205c-4.9850769,6.2872009-9.8843689,12.6556702-14.526001,19.1982117
		C263.895874,266.1809998,264.010437,271.5969543,268.4026794,277.4437256z M325.138031,212.5983429
		c0.452301-0.59552,0.9046021-1.1909485,1.3568726-1.7864685c18.3616638,3.4592438,32.4849243,14.2284546,45.3913269,26.8922729
		c10.2817688,10.0886078,20.1829529,20.5641022,30.3731995,30.747757c3.4942627,3.4920654,5.0453796,5.5977478-1.572113,7.246521
		c-2.9352112,0.7313843-5.2226563,4.0621338-9.0461731,7.2474976c-1.8927002-1.4391785-5.4309692-3.078186-7.395752-5.8374939
		c-4.3586121-6.1216125-8.5302734-12.5248413-11.6933594-19.3182983
		c-6.4606628-13.8759918-15.1186523-25.3809204-28.9242859-32.8073273
		C337.1254883,221.4850006,331.2808838,216.7646942,325.138031,212.5983429z M114.6893158,501.8609924
		c-0.9402771,0.2816772-1.8804703,0.5633545-2.820755,0.8450623c-1.3849487-2.32724-4.4347916-5.2759705-3.8417053-6.864624
		c1.7531052-4.6955872,4.9460068-8.8536377,7.5756226-13.2219849c1.1969223,0.4910278,2.3938522,0.9820557,3.5907745,1.4729919
		C117.6919403,490.0152893,116.1906281,495.9381409,114.6893158,501.8609924z M125.321022,564.3212891
		c1.2703171-15.4294434,2.2179642-30.8959351,3.9850998-46.2681885c0.6223755-5.4133911,4.1256409-10.5090942,4.6631927-15.9139709
		c0.3706665-3.727356-2.3209839-7.6851501-3.222702-11.6362c-0.7467957-3.271759-1.1752625-6.6989441-1.0112457-10.0209351
		c0.0302429-0.6110229,4.2129822-2.0737915,5.3583527-1.3557434c2.4906311,1.5613403,5.9193878,4.1775208,6.0591431,6.5348206
		c1.1427765,19.2781677,3.0477753,38.7041626,1.5986176,57.848999c-0.5889282,7.7804565-8.9141235,14.9752808-13.7193298,22.4365845
		C127.795105,565.4049072,126.5580673,564.8630981,125.321022,564.3212891z M144.9951782,569.9654541
		c-1.7501678-0.0722046-3.4777985-0.6906128-7.4359436-1.520874c3.6402435-2.670166,5.5057373-4.5756836,7.7696075-5.6056519
		c9.6661224-4.3978882,19.4488831-8.5396118,29.1911621-12.7700195c7.2090302-3.1303101,6.7306519-3.6712036,3.1770477-10.5185547
		c-2.7250977-5.2507935-4.0322418-11.5586548-4.6050568-17.5274048c-0.7876129-8.2064819-0.1913147-16.5386047-0.3725739-24.8129272
		c-0.1134186-5.177002,1.3281097-7.2922058,7.1299896-5.9042358c17.3841095,4.158905,17.1123962,3.9657898,17.0569305,21.6193237
		c-0.047821,15.0968628-1.8760529,29.6286621-9.2256927,43.0959473c-1.0073547,1.8458252-1.5578918,3.946106-2.2590332,5.9498901
		c-0.1458282,0.4165649-0.021225,0.9278564-0.021225,2.8535156c18.0588074-3.5308228,32.1082611-15.2399902,49.5282288-20.2462158
		c-10.1642456-16.7637329-21.0895996-32.2352905-0.7153473-47.5812073c-0.6699371-0.9860229-1.0165253-1.9699097-1.7114258-2.447937
		c-9.6727905-6.6551819-10.2614746-15.9901428-9.4038544-26.7372437
		c1.4611969-18.3116455,1.5925598-36.7294312,2.3016663-55.6101685c-14.559967,0.6500244-26.2341156,7.4355164-38.4754333,15.374176
		c11.3776398,15.0293274,7.9918671,32.1867676,8.435318,48.6561279c-1.2911987,0.4417419-1.7379456,0.7424011-2.168396,0.7205505
		c-18.6019135-0.9437256-18.6013947-0.9472961-18.5968018-19.8494263c0.0015564-6.385437,0.1013794-12.7728882-0.0268555-19.1557617
		c-0.1389771-6.9200439-0.2836761-13.681366,5.2807159-19.1299133c1.272049-1.245636,1.310257-3.7514954,2.5497284-7.6898193
		c-16.3247681,5.2549744-31.521759,8.3754578-44.4667358,17.3873901c-1.3049774,0.9085693-1.4728088,4.9798889-0.7176819,7.0556641
		c3.4198151,9.4005432,6.0415497,18.7988586,4.1264191,29.5202332c-5.0416718-1.1808167-9.7815399-2.2909241-14.9713669-3.5064697
		c0-17.1499023-0.1104736-33.9169922,0.0693207-50.6809692c0.0519867-4.8482666,2.5775375-7.9320984,7.9709854-7.8334045
		c2.1190948,0.0387268,4.253006-0.4863281,6.3660431-0.401947c11.1436005,0.4450073,20.9737549-1.2153015,24.1958466-14.2265625
		c0.0947876-0.3828735,0.6247253-0.706665,1.0175781-0.953186c0.375351-0.2355957,0.836731-0.334259,2.4259033-0.9302063
		c-1.7798767,5.6184387-6.1090546,10.5435791,0.1550903,15.1593628c3.6510925,2.6903687,6.2772369,2.8959656,8.2424469-1.7367249
		c2.1227417-5.0041504,4.3887024-9.9475403,6.5921021-14.9174805c0.6968994,0.1436768,1.3937988,0.2872314,2.0905914,0.4308167
		c-0.0899353,2.0584412-0.1177521,4.1220093-0.2861023,6.1739502c-0.1912231,2.3305054-1.1620026,4.8304138-0.5863342,6.9246521
		c0.5744629,2.089447,2.6438293,3.7679749,4.0578003,5.6266785c1.7748566-1.5030212,4.2328186-2.670166,5.1734467-4.583374
		c1.6443787-3.3453064,2.2098236-7.2033997,3.5197296-10.7382813c0.6725464-1.8148804,1.9767456-3.3956604,4.6752472-4.6223755
		c-0.4710083,6.3023376-0.9423676,12.6047058-1.4085236,18.8414001
		c15.9334869,5.3917847,11.6091614-10.4339905,17.069931-15.5260925c0.7598877,0.4673767,1.5188904,0.8100586,1.4851074,0.9310303
		c-2.3425598,8.3745728-0.1008606,13.2943115,9.1158295,15.6290894c2.9892883,0.7572021,5.0587311,6.3587646,6.8751831,10.0738831
		c1.085144,2.2189026,1.1492615,5.0732727,1.184967,7.6486511c0.5807037,42.0871887,1.3270721,84.1744385,1.5017395,126.263855
		c0.0875092,21.1290283-3.0596313,24.4528809-24.2663727,24.348999
		C190.7319641,572.3742676,167.8634338,570.9090576,144.9951782,569.9654541z M395.6927185,695.7938232
		c-10.476532-5.3297119-19.3823242-11.0018921-29.0698547-14.5228271
		c-14.7906189-5.3757935-30.0018311-9.7269287-45.2507935-13.6782837
		c-23.2160645-6.015625-46.1338806-13.3446655-66.4864807-25.7996216
		c-19.7452087-12.083374-29.0019226-32.0965576-32.4925385-55.0883179c4.9089966-0.975647,9.5528717-1.6427002,14.0492706-2.8566895
		c5.6487885-1.5253296,10.7796173-3.7892456,10.6544952-11.1030884c-0.1486816-8.6904907,4.8358765-12.1401978,12.817337-14.5210571
		c22.8266907-6.8095093,45.3719482-14.5633545,68.9667969-22.25177c3.5405273,7.428833,7.0377502,13.8756104,9.7256775,20.6438599
		c2.9892578,7.5274658,0.447937,14.4523926-6.2204895,18.993042c-4.2934875,2.9235229-8.0104065,4.2559814-11.875-1.3651733
		c-3.4831543-5.0666504-7.4932861-3.9118042-9.0676575,2.4766846c-1.3312073,5.4012451-2.2805176,10.1818237-9.7608337,8.9031982
		c-0.9735413-0.1663818-3.8120422,3.4175415-3.665802,5.0774536c0.702179,7.9630737,2.1333923,15.8618774,3.3518066,24.0946655
		c0.9687195-0.2721558,2.1886902-0.6150513,3.3635864-0.9451904c2.8338623,7.2073975,7.9891052,10.0317993,15.6725159,8.652771
		c4.9892273-0.8955688,10.2796631,7.1798096,9.3100891,12.6046143c-3.5911255,2.0986328-6.4584045,3.774292-9.3258667,5.4499512
		c2.9260254,2.0958252,5.8522339,4.1918335,7.3297119,5.2501221c3.39151,4.1243286,5.8678284,7.1356201,8.3439941,10.1469116
		c2.4465332-3.4240723,4.8927307-6.8481445,8.026886-11.2351685c2.8388672,1.0455933,6.8235168,1.0697632,5.2732544-6.3803101
		c-2.454834,0-4.6741943,0-6.8311462,0c-2.3725281-8.1004028-1.4750671-9.8716431,6.2613831-11.4602051
		c6.4769287-1.329895,12.9861145-2.6727295,19.5490112-3.3746338c9.3102722-0.9957886,16.5834961-4.8771362,21.640686-12.8805542
		c1.315979-2.0823364,3.1779785-3.8195801,5.7099609-6.7988892
		C395.6927185,635.5142822,395.6927185,665.4968872,395.6927185,695.7938232z M381.2883606,528.5706177
		c-2.1120911-0.3973999-3.7493286-3.3168335-7.683075-7.0339355c9.4359131-4.2240601,17.4860229-7.3411255,25.0803528-11.3265991
		c17.0090942-8.9260864,30.5974121-3.9585876,41.6007385,10.1150513
		c10.671814,13.6497192,20.6620789,27.8323975,30.0326538,42.8965454
		c-22.0361023-0.211792-43.6034546,0.7891846-60.7669678-15.4847412
		C401.212738,539.8297729,393.5950012,530.8861084,381.2883606,528.5706177z M446.5458374,590.5788574
		c-4.3534241,3.5912476-8.7070313,7.1824341-12.8478394,10.5982666c-1.0562134-0.4898682-1.6570129-0.5684814-1.8654785-0.8964844
		c-1.8869629-2.9703369-3.7051392-5.984314-5.5434265-8.9854736c3.5609741-1.0221558,7.0713501-2.331543,10.699707-2.972229
		c2.7116699-0.4786987,5.5758362-0.0944214,8.3720703-0.0944214
		C445.7557983,589.0119629,446.1507568,589.7954102,446.5458374,590.5788574z M446.8480835,677.5911255
		c-1.0791016,0.4666748-3.4320679-0.9219971-4.6546326-2.0462646
		c-11.828186-10.8775635-23.5960999-21.8230591-35.2194519-32.9185791c-1.545929-1.475769-3.0169983-3.8589478-3.1071167-5.8847656
		c-0.3549194-7.9992065-0.1455688-16.0233154-0.1455688-25.659729
		c19.7984009,20.2194214,38.3974609,39.2139282,57.8246765,59.0542603
		C457.0778198,672.4665527,452.0906677,675.3240356,446.8480835,677.5911255z M608.2515869,522.7230225
		c-2.7376709,7.5231323-5.3527832,15.3752441-9.7119141,21.9647217
		c-9.0822754,13.7290649-11.2383423,28.779541-11.2463379,44.5881348
		c-0.0065308,12.447937-1.2869873,24.4832153-9.6751709,34.7014771c-5.5963135,6.8172607-8.6117554,7.633728-16.0516968,3.0644531
		c-18.1925049-11.1726685-18.1947632-11.1771851-37.3800659-1.6657715
		c-2.2631836,1.1219482-4.4854736,2.3259888-7.4992065,3.8939209c3.0988159,3.4473877,5.7278442,6.390686,8.3771362,9.3155518
		c5.3641968,5.9227905,5.0074463,7.7417603-2.2756958,10.2296753c-7.8147583,2.6697388-16.1882019,8.1461182-23.3867493,6.921875
		c-7.1153564-1.210022-13.1303101-9.1815186-19.5095215-14.3335571c-4.9266663-3.9788818-10.1985474-5.661499-16.730957-6.1635742
		c-8.557312-0.6577759-16.9780884-3.4714966-25.3676453-5.6976318c-2.4054871-0.6382446-4.4995422-2.4506226-5.6695862-4.9967041
		c3.7978516-0.44104,7.5874023-3.4006348,9.2629395,1.741333c0.1001892,0.3074341,4.6653748,0.0454102,6.085144-1.1843872
		c1.8249512-1.5803833,2.5692444-4.4083252,4.2248535-7.5428467c0.9243469,5.3636475,1.7213135,9.9882813,2.51828,14.6129761
		c0.8040771,0.2312012,1.6081543,0.4622803,2.4122314,0.6934814c3.5644226-3.727356,7.1288757-7.4545898,10.9081726-11.4066772
		c-0.3604431,3.6008301-0.693512,6.9276733-1.2381592,12.3686523c15.0593872-2.7659912,29.2616882-4.6779175,43.0957336-8.0845337
		c19.0435181-4.6896362,34.0753784-16.5422974,46.0749512-31.3652344
		c13.9492798-17.2315063,26.6872559-35.4901733,39.1727905-53.8327637
		c3.869751-5.6849976,5.6785889-12.9645996,7.5715942-19.7537231c2.2850342-8.1943359-2.9213257-13.1121826-11.1339722-10.3528748
		c-5.9705811,2.0061951-11.458374,5.4529114-17.1541138,8.2725525c-5.8278198,2.8851318-11.6467896,5.7886963-18.8690796,9.3800049
		c0-10.0132446-0.0446777-18.1615906,0.0125122-26.3091431c0.0595703-8.5125427,0.0977173-17.0292053,0.4526367-25.5313416
		c0.0574951-1.3792114,1.7093506-2.6918335,2.6243286-4.0352783c1.128479,1.3645935,3.1826782,2.6925354,3.2380981,4.0995789
		c0.4204102,10.630127,0.4315186,21.276062,0.6113892,31.9163513c0.0424805,2.5115967,0.2412109,5.0204773,0.4559326,9.2704163
		c7.0240479-3.2194214,13.3138428-5.2780762,18.6740723-8.7652893c6.8782959-4.474823,14.0778809-3.6804504,21.1959839-2.6646118
		C608.1550903,506.9049072,611.0383301,515.0650024,608.2515869,522.7230225z M572.0267334,540.2897339
		c-2.0554199,8.269104-6.1279907,14.4508667-14.1489258,19.0265503
		C557.2290039,549.6278076,562.3585815,542.9614258,572.0267334,540.2897339z M683.0435791,531.90802
		c-4.8552856,4.4180908-11.9416504,4.3058472-17.9924927-0.2849121c-5.3869629-4.0872192-7.9634399-12.5968628-4.9994507-17.6697388
		c0.755188-1.2921753,3.168457-2.8441467,4.1925659-2.4856262c1.9242554,0.6738586,4.0527954,2.3553162,4.8705444,4.1700745
		c0.8917847,1.9786987,0.3920288,4.5841064,0.5153809,7.2767334c15.8026733-0.798645,11.5380859-14.6179504,15.7180786-23.7058716
		C695.3375854,513.4956055,694.6699219,521.3284912,683.0435791,531.90802z M658.7623291,475.6325073
		c6.7490234,5.3296814,12.4710693,9.1096802,17.1598511,13.9008484c1.9798584,2.0231934,3.2010498,6.7510071,2.2035522,9.2093201
		c-1.1435547,2.8182678-4.9015503,4.9448853-7.9707031,6.4764404c-1.8928833,0.9447021-4.774353,0.7279053-6.9241943,0.0792847
		c-1.7150879-0.5174561-4.197998-2.4142151-4.2697754-3.805481
		C658.5515747,493.5546875,658.7623291,485.5844727,658.7623291,475.6325073z M690.7493896,410.9744263
		c-1.2991943,4.6786194-2.4817505,9.6177063-2.3930054,14.4134521c0.3462524,18.6817932,1.2290039,37.3534546,1.8949585,56.029541
		c0.0639038,1.7941589,0.0084839,3.5925903,0.0084839,6.5467834c-3.2869873-2.7012634-5.8850098-4.6019287-8.2154541-6.7880859
		c-22.2088623-20.8350525-49.065979-26.965332-78.5801392-25.4092407
		c-73.0202637,3.8499146-143.3312683,21.1156616-212.7872925,42.6509705
		c-30.6817932,9.5131836-61.3334656,19.1287231-91.9163208,28.9545288
		c-12.5847778,4.0435181-24.9377136,8.8058472-37.4282227,13.1486206c-3.5407104,1.2310181-7.1947327,2.1358643-11.5762482,3.418396
		c0-9.6864014-0.1850739-18.4058838,0.0324097-27.1153564c0.8856964-35.4740295,2.0013428-70.9427795,2.7378387-106.4195557
		c0.1053619-5.0741577,1.7214813-7.4500732,6.5521545-9.0570984c16.3161011-5.4279175,32.4720764-11.3377075,49.1704712-17.2332458
		c-9.6474915-12.5386047-9.6793823-26.2460632-5.5548706-39.7747803
		c2.5187988-8.2618408,8.8924866-14.2339172,17.6795654-17.0713196c16.0982971-5.1981201,32.3793945-8.7323303,49.6032104-5.879425
		c-8.4462585,1.3720398-16.9573059,2.4380493-25.318634,4.2113342c-6.8834839,1.4598999-13.9350586,2.9840698-20.3083801,5.8315125
		c-18.4989014,8.2648926-22.2392273,14.3792419-19.5455627,34.1326599
		c0.6994019,5.1277161,5.1342773,10.3347778,9.1508179,14.1332397c1.620636,1.5325012,6.7226868-0.6163025,10.240509-1.0897522
		c-0.395813-2.6934509-0.5739441-5.443512-1.256012-8.0624695c-0.5472717-2.1021118-1.7055359-4.0452271-2.0524597-6.4256592
		c5.2937012,4.1291809,7.6123352,13.5461121,16.5080872,9.6334534c2.1219788-0.9332581,2.0476379-6.8604431,2.8364563-9.9210205
		c1.3251648,1.1332397,3.3112488,3.4960632,5.8406067,4.8265076c3.1416016,1.6525879,6.1242981,1.6763306,8.1019287-2.5988464
		c0.8430481-1.8226929,3.5952759-3.3591919,5.7541504-3.8729858c9.3459473-2.2244568,19.1681213-2.9664001,28.1425476-6.1492615
		c54.989624-19.5025024,111.1915894-34.5000305,169.1340942-40.9238586
		c26.755188-2.966156,54.7443848-5.2096863,80.9594727,3.3379211c24.1949463,7.8889465,46.2338257,20.8215332,60.9924316,42.8708191
		c2.0806885,3.1085815,3.3817749,8.0703735,2.5360718,11.5680847
		C698.592041,385.7163086,694.2839966,398.2451172,690.7493896,410.9744263z"/>
	<path d="M367.5588074,400.8036804c-1.2030029-10.2333069-0.8248596-11.1303406,7.6265564-12.507843
		c5.0053711-0.8159485,5.0445251-4.2575989,5.1523132-7.8234253c0.127533-4.2180176,0.8089294-10.1358337-4.685791-10.2478638
		c-6.7677612-0.138031-14.8230286,0.4553223-20.040863,4.0466919c-5.3474121,3.6806335-10.0316772,5.1221619-16.0464478,5.10849
		c-3.6207581-0.0083313-8.140564-0.1908875-10.7054443,1.7520447c-9.5488892,7.233551-16.3325806,16.4525757-15.6924438,29.3366394
		c0.4857483,9.7764282-2.7331543,16.7807007-13.0627136,19.5111694c-3.3175049,0.8769531-6.096405,3.6178284-9.3350525,5.0090942
		c-4.2648926,1.8322144-5.8323059,4.5389404-5.6366577,9.3030701c0.3978882,9.6825867,0.2290955,19.3985291-0.053894,29.0904846
		c-0.0563049,1.9300232-1.6680908,3.8145752-2.5628052,5.7200928c-1.0785828-1.9427795-2.9086914-3.8125-3.1057434-5.8407898
		c-0.8454895-8.7062683-1.0731812-17.4713745-1.8509216-26.1860352c-0.1859436-2.0840759-1.0690308-5.0830688-2.5809937-5.8968506
		c-5.5309753-2.9767151-15.638031,3.3047485-15.4685364,9.499939c0.3685913,13.4702148,0.8078613,26.9485779,1.704834,40.3910828
		c0.6333923,9.4950867,5.3254089,12.332489,13.6952515,8.521698c5.1925049-2.3641052,9.6963501-6.3927307,16.0310364-2.4493713
		c1.2069702,0.7512207,5.1914673-0.7215881,6.1554871-2.2587891c2.4153442-3.8514709,4.942627-8.2037048,5.4338989-12.5785522
		c1.2371216-11.0187378,1.1019592-22.1860046,2.1197205-33.2381897c0.3091431-3.3560486,2.586731-6.5307617,3.9626465-9.7885742
		c0.7801514,0.2380371,1.5603333,0.4759521,2.3404846,0.7139587c0.2991028,1.3080139,0.8465271,2.6135864,0.8595276,3.924469
		c0.1420898,14.4293823,0.1292725,28.8605042,0.3122559,43.2893066c0.0953369,7.5192871-1.6705322,13.8466797-8.477417,18.3117371
		c-1.6809387,1.102478-1.9734497,4.3215332-2.9043579,6.5675964c2.7733459,0.7029419,5.7640076,2.4141846,8.2694702,1.8740234
		c3.8197021-0.8234863,7.4664307-2.9326172,10.8943176-4.9842834c5.9653931-3.5706787,9.7880554-8.3933105,9.6140747-16.0314941
		c-0.3821106-16.7889099-0.1271973-33.5921326-0.4904175-50.3817749
		c-0.1719055-7.9494019-0.4301147-15.3353577,7.8445435-20.1755676c2.3415222-1.3697815,3.1901245-5.2919006,4.7236023-8.0434265
		c-2.8017883-0.7420349-5.8262329-1.050415-8.344696-2.3437805c-2.70578-1.3895264-4.936554-3.70401-7.3746033-5.6148987
		c2.4212341-2.4050293,4.459137-6.0049744,7.3538208-6.9325256c4.2506714-1.3620911,9.1134033-0.8143921,14.2487183-1.111145
		c-0.1729431,2.3596191,0.7550354,6.6348877-0.9350891,9.1533508c-3.2752075,4.8804932-2.2617798,8.5886841,0.2426147,13.0388184
		c1.2076721,2.1462097,1.78302,4.9449463,1.7592773,7.4397583c-0.1583862,16.5571594-0.5264587,33.1126404-0.8934937,49.6672058
		c-0.1337891,6.0317688-1.1056213,11.6038818-6.3691711,15.8300171c-1.9308167,1.550354-2.5336914,4.7546997-3.8457031,7.4139404
		c14.8084717,2.3046875,21.725769-2.1309509,24.5563049-15.2112732c0.4983826-2.3034058,0.7910767-4.6698608,0.9598694-7.0230103
		c1.2684937-17.6898499,2.2787781-35.4022522,3.8935242-53.0598145c0.3042908-3.3276367,2.7615662-6.5495605,4.5558167-9.6278381
		c2.5422058-4.3617554,5.3911133-8.5448303,8.7495117-13.8079529
		C374.3189087,401.5279541,370.8797607,401.1594543,367.5588074,400.8036804z"/>
	<path d="M491.4928589,356.9428711c-11.629425-0.9078979-21.4178162,2.842926-28.8566895,13.0221558
		c-5.0162964,6.8640137-2.0271912,13.203186-2.20047,20.0113831c-0.7117004,27.962616,3.9269714,56.2427063-5.0894165,85.7572021
		c10.0180054-4.5369263,18.6933289-8.1365662,27.054657-12.3573303c6.6131592-3.3382874,6.8358459-6.8166199,2.5550232-12.9103088
		c-1.9273682-2.7434692-3.7723999-6.1959839-3.9378967-9.4151306c-0.8009338-15.563324-0.6196899-15.6445923,13.9449463-20.9710693
		c7.3768616-2.6977844,13.5311584-7.3173218,14.2246704-15.1534729c1.2591248-14.2243958-0.0537415-28.5224304-7.2914429-41.2308655
		C500.035614,360.4286194,495.1943665,357.2317505,491.4928589,356.9428711z M493.1325378,403.8396606
		c-0.5357971,3.8559265-5.9196472,7.0382385-10.5063171,9.9255371c-0.7144775-13.6039124-3.1383057-26.7602234,1.8540344-39.6679382
		C492.9797058,382.8169556,494.5923462,393.3323975,493.1325378,403.8396606z"/>
	<path d="M650.8706055,361.2843323c-8.5803833-0.8557129-10.8208618-4.714386-7.5222168-14.5645447
		c1.5223389,1.4186401,2.829834,2.1784363,3.4668579,3.314209c2.1865845,3.8979187,4.8687744,5.9088745,8.9979858,2.7201538
		c3.7598877-2.9035034,4.1851807-6.6571045,1.9277344-10.696167c-1.03302-1.8483276-2.3741455-3.5223389-3.5310059-5.3040466
		c-3.7018433-5.7003479-12.2999268-9.2728271-19.0409546-7.8878784
		c-7.1473999,1.4683838-11.6067505,5.9438171-12.3189697,14.3535767
		c-1.2532349,14.7997131-9.996521,29.4033508-1.5256348,44.5378723c0.1025391,0.183075,0.0328979,0.4660645,0.0325317,0.7024231
		c-0.0141602,9.9314575,0.3583984,19.8841858-0.1832886,29.7867737c-0.3514404,6.427124-0.5985718,13.3806458-8.6726074,16.2820435
		c-1.3720703,0.4931946-2.8215332,4.6402283-2.1661377,6.2644043c3.5854492,8.8858032,17.6660767,10.963562,23.4508667,3.2209778
		c2.8016357-3.7498474,4.7879028-8.8696594,5.1656494-13.5296631c1.2219238-15.0720215,1.3547974-30.229248,2.307373-45.3284302
		c0.2363892-3.7453308,0.421814-8.6174316,5.9463501-9.1075134c5.0328979-0.4464722,7.3931274,2.5435791,9.1005859,7.1019287
		c2.0753784,5.539978,5.6865845,9.6820679,13.1387939,7.3211365c0-3.0537415,0.0199585-5.8635864-0.0032959-8.6729736
		C669.3362427,369.1808167,663.3048096,362.5243225,650.8706055,361.2843323z"/>
	<path d="M598.7644043,353.7984009c1.2423096-4.8746948,2.277771-8.937439,3.3131714-13.0001831
		c3.032959,1.2600098,6.065918,2.5200195,9.8722534,4.1013794c0.604248-0.4966431,2.1417236-1.559967,3.4406738-2.8612061
		c6.2518921-6.2628479,6.1431885-8.6886597-1.3500977-13.4785461c-3.7301025-2.3842163-7.9053955-4.2241516-12.0921021-5.7096863
		c-8.4876709-3.0115662-13.3687744-1.0863037-17.2667847,7.1708984c-1.6531982,3.5016174-2.3876343,7.603241-2.7643433,11.5069885
		c-0.8330078,8.6293945-1.2806396,17.302124-1.6225586,25.9675903c-0.0637817,1.6165466,1.1151733,3.2763367,1.6950073,4.9252014
		c1.6566162,4.7111206,4.3395386,9.3471069,4.7088013,14.1592407c0.5737915,7.4756165,0.0944824,15.1413574-0.8856812,22.6019897
		c-1.5750122,11.9905701-3.1795654,24.3514709-18.1716919,27.7916565c-0.7346191,0.1685181-1.9072876,1.6519165-1.7440186,2.0168457
		c1.8642578,4.1698608,3.3092041,8.8142395,6.2471924,12.0950012c1.4483643,1.6174927,6.3232422,1.8258667,8.6898804,0.6850281
		c12.7438354-6.1431274,19.6481323-17.0285339,20.56604-30.7982788c0.9855347-14.7843933,0.645874-29.67099,0.4887085-44.5088501
		c-0.0458984-4.3369751,0.5792847-7.2637634,4.4695435-10.067627c3.2415771-2.3364258,5.1164551-6.5689697,8.3531494-10.9963989
		C608.4569702,354.7715149,604.3560181,354.3597717,598.7644043,353.7984009z"/>
	<path d="M562.3078003,393.8623962c-0.1448364-13.0259094-3.0464478-26.4966431,3.458374-39.0705261
		c1.0163574-1.9647827,0.4133301-4.767334,0.6431274-8.5758362c-6.0402832,3.9414063-10.4394531,7.611145-15.46875,9.8905945
		c-6.2088623,2.8141785-8.8267822,6.3869324-8.3588867,13.5742188c0.7592163,11.6597595,0.2044678,23.4050293,0.2044678,35.1380005
		c-7.2269287,1.0702515-8.3297729-3.4889526-8.3796387-8.6031494c-0.1263428-12.9543457-0.0419922-25.9107361-0.0419922-41.1211548
		c-6.8224487,3.0923767-12.1433716,5.7030945-17.6242676,7.9183655c-3.6292114,1.4669189-4.9081421,3.6337585-4.5001831,7.5716553
		c1.4591064,14.0885925,2.4674683,28.2247009,3.9934692,42.3051758c0.7866211,7.2581482,5.6062012,9.6875305,12.6792603,7.9977417
		c6.3400269-1.5146484,12.9942627-3.2951355,19.3469849-2.8126831c10.0883179,0.7661133,17.4553223-1.7399292,21.4371948-11.5022278
		C567.1866455,402.4831238,562.3561401,398.1993713,562.3078003,393.8623962z"/>
	<path d="M439.9569397,417.6618347c2.3190002-1.1643372,4.6043701-2.4207764,6.7996216-3.8021851
		c9.2055969-5.7921753,10.3117371-17.5387573,2.9125366-25.4465027c-10.4056702-11.1208191-25.4335022-4.6792908-30.8904724,6.64505
		c-6.0109558,12.4741516-10.4194946,25.4855652-7.3515625,39.6198425
		c1.824585,8.4058838,2.3898926,18.7192383,12.0148315,21.8161316c13.512085,4.3476257,27.7550964,0.4138184,29.9590149-17.9640198
		c0.2713928-2.262146-1.2861633-6.0367126-3.0589294-6.8822021c-1.7246094-0.8225098-5.682251,0.4728394-7.1275024,2.1546326
		c-3.1391602,3.6533203-5.3018494,8.1459961-8.2464294,12.9153442
		C425.8333435,434.6262207,427.9410706,423.6950073,439.9569397,417.6618347z M428.8856812,414.7903137
		c1.0345764-4.103363,1.7142029-8.3528442,3.3083191-12.2258911c0.5153809-1.2521362,3.4320374-1.5158081,5.2505798-2.2315674
		c0.4132996,2.0518494,1.8029175,4.6207275,1.0445862,6.052124c-1.79599,3.3909607-4.6112976,6.2421265-7.0144958,9.3114624
		C430.6116638,415.3944092,429.7486877,415.0923767,428.8856812,414.7903137z"/>
	<path d="M404.5700989,362.4468689c-7.4666138,6.5896606-13.875824,12.0663757-20.0040894,17.8412476
		c-0.9602356,0.9049377-1.0059814,3.2019958-0.8418579,4.789856c0.3320313,3.2084961,1.7826538,6.4169006,1.5776367,9.5471802
		c-1.6549377,25.2556152,5.0421143,51.1373291-6.6850586,76.9130859
		c9.0671387-5.8161926,16.8718567-10.6524353,24.4429626-15.8305359c1.4204712-0.9715881,2.7064514-3.3101501,2.7043762-5.0162964
		c-0.031189-26.2037659-0.2708435-52.4074707-0.5129395-78.6106567
		C405.2261658,369.3609314,404.8771667,366.644165,404.5700989,362.4468689z"/>
	<path d="M461.1026917,218.6357269c2.5425415,8.1098022,8.1824951,2.184433,13.028595,1.8602905
		c0.8860474,5.6605682-3.2325745,13.0847321,5.8525696,15.3392639c0.8934937-0.7729645,1.9488525-1.6663818,2.981842-2.585083
		c1.2164917-1.0820313,2.4134216-2.1858978,3.7625122-3.4106445c-0.4871216-1.3774109-1.1473694-2.6228485-1.3353882-3.9360504
		c-0.2271729-1.5849304-0.053894-3.2272949-0.053894-5.4913635c5.0327454-0.5932617,10.8650513,4.5558472,13.2734375-2.8408508
		c0.5791626-1.7786713-0.4699707-5.8370667-1.39151-6.0411224c-3.3493958-0.741684-6.9623413-0.2926025-11.147522-0.2926025
		c-0.304657-3.1253204-0.2422485-7.6168671-1.3736877-11.7844391c-0.5144958-1.8957214-3.4198914-4.3731995-5.186615-4.3306427
		c-1.5698547,0.0378571-3.8805237,2.9781036-4.4173889,5.0180054c-1.0172119,3.8638763-0.997467,8.0007019-1.2078247,10.059494
		c-4.8795471,0.5988007-8.6004639,0.451416-11.71521,1.7538757
		C461.0281677,212.4324036,460.4663696,216.6063995,461.1026917,218.6357269z"/>
	<path d="M427.727417,220.5752106c1.6757202,5.3643341-3.5531921,13.1683502,6.1697083,15.1355591
		c1.9873047-1.7700043,4.2513428-3.7864227,6.3256531-5.6339722c-0.48349-3.1896057-0.9191284-6.0628662-1.5932312-10.5096283
		c3.7677002,1.0475464,5.9324646,1.9839325,8.1672363,2.2023621c4.9465942,0.4833984,8.5273438-7.1414337,4.4414673-9.8206024
		c-2.6702576-1.7508545-7.1243896-0.7812042-11.2539063-1.0623627c-0.4509277-3.1372833-0.7146606-7.7922363-1.9575195-12.1690674
		c-0.4703064-1.6563263-3.3355103-3.836853-4.8642883-3.6603546c-1.6343079,0.1887207-3.8554077,2.6782227-4.2720032,4.5145111
		c-0.9066467,3.9986115-0.8297119,8.2202606-1.0201416,10.6398468c-4.8447266,0.7678528-8.8338928,1.0057831-12.4645386,2.2716827
		c-0.8364868,0.2915649-1.1281433,4.3309021-0.49823,6.2634583
		C417.6009521,227.0102234,423.2691345,220.3421326,427.727417,220.5752106z"/>
	<path d="M558.0916138,220.5706177c2.8970947,7.7167664,7.9703979,1.2946625,12.2940063,1.1494446
		c2.2321777,5.184021-4.2832642,13.7186432,6.5181885,15.2141418c1.8643188-1.6761627,4.0907593-3.6781158,5.9186401-5.3215179
		c-0.437561-3.4324799-0.8071899-6.331131-1.3712769-10.7552643c3.6801758,1.0461578,5.8470459,1.9771729,8.0911865,2.2343292
		c4.6159668,0.5288849,8.5526123-6.5374298,4.9341431-9.1547394c-2.8375244-2.0524597-7.6255493-1.4082489-12.1229858-2.043457
		c-0.1525269-2.5870667,0.1930542-6.7090759-0.8408203-10.4498291c-0.6027222-2.1810455-3.4135132-3.7518616-5.2306519-5.5972443
		c-1.6206055,1.9933777-4.076355,3.7667694-4.6726074,6.0300446c-0.975647,3.7037506-0.7416992,7.7261963-0.8837891,9.728241
		c-4.9830322,0.7180328-8.9501953,0.8709717-12.5270996,2.1313171
		C557.4109497,214.0136108,557.3079834,218.4828949,558.0916138,220.5706177z"/>
	<path d="M521.5097656,268.1512451c-3.5153809-0.8616943-7.2702637-0.7463684-11.6892395-1.0247803
		c-0.252655-2.8512573-0.1552734-7.3072815-1.2329712-11.4582977c-0.5054932-1.9475403-3.276062-3.3071899-5.0200806-4.9332733
		c-1.5800781,1.7702637-4.0255737,3.3160248-4.5551453,5.3587036c-1.026062,3.9571228-0.9739075,8.1937561-1.1787109,10.3309631
		c-4.7750549,0.7529602-8.7786255,0.9753723-12.3941956,2.2760925c-0.786377,0.2829895-0.9094238,4.7209778-0.0914917,6.7406006
		c3.0332947,7.4910583,7.9721069,1.4447327,12.4841003,0.9155884c1.4151001,5.5397034-3.9052734,13.6890259,5.6307678,15.329834
		c8.1863098-2.5940857,5.9165344-9.2067261,5.6202087-15.2683105c5.1564941-0.4819031,10.4779053,4.808075,13.1062012-2.1990662
		C522.8604126,272.4299927,522.2386475,268.329895,521.5097656,268.1512451z"/>
	<path d="M572.7073975,270.1025085c-2.8139038-1.9107361-7.4979858-1.0671387-11.7531738-1.4945679
		c-0.2663574-2.9107056-0.151123-7.2320557-1.2435303-11.2228088c-0.5401611-1.9730072-3.3062134-3.3366394-5.0651245-4.976059
		c-1.5582275,1.811676-3.951416,3.4048309-4.494873,5.4819183c-1.0246582,3.9162903-0.9839478,8.1115112-1.3862915,12.1907043
		c-0.373291-0.6641235-0.7467651-1.3282776-1.1201782-1.9924011c-3.7559204,0.7780762-8.9324951,0.3864136-10.8324585,2.6933594
		c-1.6071167,1.9514465,0.5796509,7.0274963,1.1968994,11.5169678c4.7719727-1.9776917,7.49646-3.106842,10.8607178-4.5011597
		c1.713501,5.6498413-3.7943726,13.9197388,6.1941528,15.8009033c2.166687-1.8296814,4.468811-3.7739258,6.171936-5.2123413
		c-0.3670044-3.8076477-0.6664429-6.9116516-1.0661011-11.0559998c3.2698364,1.0335999,5.4081421,2.028717,7.6432495,2.3509521
		C572.7618408,280.3953247,576.7350464,272.8371277,572.7073975,270.1025085z"/>
	<path d="M508.5249939,213.9184723c-3.578125,5.0641022,0.8940125,7.8862457,3.8933411,10.9203186
		c2.9343872-1.2168579,5.4185181-2.2469025,7.9785156-3.3084869c3.3525391,13.6470795,3.3525391,13.6470795,6.5158081,15.6820374
		c2.333374-2.0005646,4.7734985-4.0926361,6.5093384-5.5805969c-0.4105225-3.7242126-0.7369995-6.6870728-1.1043701-10.0211182
		c5.4655762-0.0904541,11.2084961,4.4295959,13.5049438-2.8328857c0.5595703-1.7689514-0.5319824-5.7429657-1.5751953-6.0192871
		c-3.0856323-0.8172455-6.5267334-0.29216-11.0238037-0.29216c-0.2595825-2.9677124-0.0675659-7.2798157-1.2074585-11.2051392
		c-0.6221313-2.1424866-3.5006714-3.6297607-5.3616943-5.4125061c-1.5890503,2.0618286-3.984314,3.9157867-4.5817871,6.2332153
		c-0.9434204,3.6584473-0.6799927,7.6280518-0.9992065,12.5788116
		C516.1838379,210.5127716,511.7480469,209.3567352,508.5249939,213.9184723z"/>
	<path d="M444.8174438,163.8796234c0.9198303,5.499939-4.2394104,13.5261993,5.7799683,15.407547
		c2.1035767-1.918869,4.3374939-3.9565125,5.9775085-5.4526215c-0.3604431-3.7040253-0.6534729-6.7151489-1.0494385-10.783432
		c3.518158,1.0098572,5.6864014,1.9889679,7.9281006,2.2036743c5.1231995,0.4905853,8.6366882-7.1970673,4.3799438-9.8454895
		c-2.655365-1.6519928-6.9508972-0.6676025-11.1937866-0.9044952c-0.3912964-2.9216003-0.6186523-7.5785675-1.8006592-11.979126
		c-0.4666748-1.7372589-3.5115967-4.3488464-4.5874023-4.0132751c-1.9474487,0.6073914-4.2267456,2.9063721-4.7019043,4.8967133
		c-0.9519043,3.987793-0.7808533,8.2436523-0.9385681,10.4780731c-4.9885254,0.6994171-8.9328308,0.8134308-12.4702148,2.0719757
		c-0.8344116,0.2968445-1.0281677,4.7192383-0.262207,6.7769928
		C434.8167725,170.630127,439.9406738,163.8123016,444.8174438,163.8796234z"/>
	<path d="M544.1749268,163.7915192c1.9978638,5.5792847-3.4883423,13.4022827,6.3164673,15.5201721
		c1.9885254-1.7507629,4.255188-3.7463989,6.2128906-5.470047c-0.3251343-3.4752655-0.6152344-6.5749359-0.9978638-10.6650543
		c3.2897949,0.9006805,5.4515991,1.793045,7.6851807,2.0430145c5.0244141,0.5623322,8.6981812-6.9724731,4.5499268-9.6325836
		c-2.7329712-1.7524109-7.2997437-0.6449127-11.8734131-0.8563232c0-2.1190186,0.7737427-5.8434906-0.2301636-9.0033722
		c-0.9002075-2.8337555-3.7561035-5.0462494-5.7490845-7.5328217c-1.7440186,2.4477539-4.270813,4.678009-5.0274048,7.4002533
		c-0.87854,3.1617126-0.204834,6.7549133-0.204834,8.152771c-5.2301025,0.6553802-9.0343628,0.6442108-12.4069824,1.8451233
		c-1.0435791,0.3714447-1.7703247,4.3200684-1.171936,6.1504669
		C533.8942261,169.7472839,539.6135254,164.8000641,544.1749268,163.7915192z"/>
	<path d="M495.7175293,163.8700104c2.2496948,5.3296814-3.8084106,13.3394775,6.238678,15.4016418
		c1.960968-1.7044067,4.2461853-3.6905823,6.3400574-5.510498c-0.4710083-3.3491211-0.9004211-6.4030457-1.488739-10.5860443
		c3.6016846,0.9329224,5.9845886,1.9458923,8.4212952,2.0983887c4.9677124,0.3110657,8.1486816-7.7098236,3.8831177-10.0509949
		c-2.7711182-1.5209045-7.0545654-0.286377-11.6608276-0.286377c0-2.506485,0.7449951-6.4137726-0.2406921-9.8201752
		c-0.7597046-2.6256256-3.6935425-4.6222076-5.6607361-6.8984833c-1.7121277,2.437439-4.1992188,4.6640625-4.9344788,7.3672333
		c-0.8624878,3.1714172-0.2019043,6.7569885-0.2019043,10.1629639c-0.5553894-0.6299286-1.1108093-1.2599182-1.6663818-1.8898468
		c-3.795929,0.6608582-7.7743835,0.8798065-11.2512817,2.3142242c-0.8014832,0.3307343-0.611908,5.1557007,0.376709,7.3460999
		C487.0273132,170.5086365,491.3346558,163.7168274,495.7175293,163.8700104z"/>
	<path d="M276.0368652,596.8638306c0.8252258,0.4136963,1.620636,0.8873901,2.2964783,1.2608032
		c5.2316589-2.6991577,6.0704041-7.6144409,3.8475952-11.4747314c-1.1016235-1.913208-6.4234009-1.3965454-10.5758362-2.1056519
		c-2.9566956-3.8875122,4.050354-13.1567383-4.7211609-14.0942993c-11.2753754-1.2052002-5.5605774,9.8797607-8.12146,14.9159546
		c-4.6832275,1.8270874-13.0481873-2.2520752-12.7684937,6.378418c0.2887115,8.9212646,8.6541901,3.7622681,13.8425293,5.3776855
		c-0.5687256,2.0170288-1.9602661,4.218811-1.3535767,5.3309937c1.5993042,2.9326782,3.6559448,6.0689087,6.381134,7.7211914
		c1.156189,0.7010498,5.1628723-1.5967407,6.5001526-3.4979858c0.8855286-1.258728-1.0023193-4.2307739-1.0300293-6.4434204
		c-0.022522-1.8202515,0.8656006-3.6518555,1.3499451-5.4783325
		C273.1359863,595.4555664,274.5957947,596.1412964,276.0368652,596.8638306z"/>
	<path d="M295.7702942,636.1104736c-2.4274597-3.7710571,2.7116699-11.0551147-4.7825012-11.5588989
		c-7.9613647-0.5352783-4.8712463,7.3476563-6.3312073,11.2186279c-3.9449768,1.9727783-10.9118347-1.7926636-10.3897095,5.4172363
		c0.1365662,1.8817749,6.0627747,3.3441772,10.4716797,5.5775146c-2.2744751,3.9154053,0.1904297,7.5958252,5.5065002,7.9880981
		c7.4872437,0.5526123,4.5282898-4.7164307,4.039093-8.6522217c-0.0705261-0.5667114,3.2745056-2.5196533,4.0827637-2.0786133
		c5.4323425,2.9636841,6.4648132-0.4859009,6.4159241-4.4209595
		C304.6807861,631.3476563,298.5308228,637.4243774,295.7702942,636.1104736z"/>
	<path d="M386.4784546,635.8334961c-2.4118958-4.5377197-3.9313049-10.6707153-6.213562-10.9694824
		c-8.33255-1.0908813-4.7870178,7.0262451-6.4602966,11.2301636c-0.4251099-0.5233765-0.8501892-1.046936-1.2752686-1.5703735
		c-3.179718,2.1922607-6.3592834,4.3843994-9.5390015,6.5765991c3.2233887,1.7111816,6.4466248,3.4222412,9.6698303,5.1333618
		c0.463562-0.3952637,0.927124-0.7904663,1.3905029-1.18573c0.0804138,0.4627686,0.1313477,0.9330444,0.2464294,1.387085
		c0.6009521,2.3751221,0.5729065,5.3477783,2.0410156,6.9213867c1.1040344,1.1836548,5.1996155,1.5047607,6.0523987,0.532959
		c1.2107849-1.3798828,0.9631348-4.3218384,0.7995605-6.5569458c-0.2275391-3.1115723-0.0603027-5.0923462,3.9714966-4.0280151
		c1.8086548,0.477417,4.666748,0.8901978,5.5626526-0.0634766c1.15448-1.2290649,1.7516479-4.5892944,0.884491-5.6969604
		c-1.0487671-1.3392944-3.8591919-1.4088745-5.9516907-1.7711792
		C387.2163086,635.6965942,386.7574463,635.7610474,386.4784546,635.8334961z"/>
	<path d="M330.4130249,263.1596375c8.7044678,0.1150818,11.5408936-2.1025391,11.8396606-9.2559204
		c0.2652893-6.3545227-6.7893982-13.3226776-13.5969849-13.4299469c-6.8467712-0.1079559-15.046051,6.4190826-15.2425842,12.1337128
		C313.2282104,257.9907227,321.3627014,263.0400085,330.4130249,263.1596375z"/>
</g>
</svg>
