<svg width="184" height="125" viewBox="0 0 184 125" fill="none" xmlns="http://www.w3.org/2000/svg">
<path d="M10.432 31.104C9.10933 31.104 8.02133 30.6987 7.168 29.888C6.35733 29.0347 5.952 27.9467 5.952 26.624C5.952 24.96 6.63467 23.1467 8 21.184C9.408 19.1787 11.264 17.408 13.568 15.872L14.528 16.832C13.632 17.7707 12.928 18.6453 12.416 19.456C11.904 20.2667 11.648 20.928 11.648 21.44C11.648 21.7387 11.7333 22.016 11.904 22.272C12.1173 22.528 12.416 22.8053 12.8 23.104C13.3973 23.5733 13.8667 24.064 14.208 24.576C14.5493 25.088 14.72 25.7707 14.72 26.624C14.72 27.9467 14.3147 29.0347 13.504 29.888C12.6933 30.6987 11.6693 31.104 10.432 31.104ZM22.848 31.104C21.5253 31.104 20.4373 30.6987 19.584 29.888C18.7733 29.0347 18.368 27.9467 18.368 26.624C18.368 24.96 19.0507 23.1467 20.416 21.184C21.824 19.1787 23.68 17.408 25.984 15.872L26.944 16.832C26.048 17.7707 25.344 18.6453 24.832 19.456C24.32 20.2667 24.064 20.928 24.064 21.44C24.064 21.7387 24.1493 22.016 24.32 22.272C24.5333 22.528 24.832 22.8053 25.216 23.104C25.8133 23.5733 26.2827 24.064 26.624 24.576C26.9653 25.088 27.136 25.7707 27.136 26.624C27.136 27.9467 26.7307 29.0347 25.92 29.888C25.1093 30.6987 24.0853 31.104 22.848 31.104Z" fill="#646464"/>
<path d="M43.584 45.18C42.552 45.18 41.76 44.94 41.208 44.46C40.68 43.956 40.416 43.32 40.416 42.552C40.416 41.76 40.632 41.136 41.064 40.68C41.496 40.224 42.108 39.996 42.9 39.996C43.524 39.996 44.028 40.188 44.412 40.572C44.796 40.932 45.036 41.448 45.132 42.12C45.9 41.832 46.62 40.944 47.292 39.456L42.144 20.412C40.44 21.06 39.12 22.068 38.184 23.436C37.248 24.78 36.78 26.436 36.78 28.404C36.78 29.292 36.864 29.916 37.032 30.276C37.2 30.612 37.284 30.804 37.284 30.852C35.988 30.852 35.016 30.588 34.368 30.06C33.744 29.508 33.432 28.608 33.432 27.36C33.432 25.824 34.056 24.336 35.304 22.896C36.576 21.432 38.196 20.256 40.164 19.368C42.132 18.456 44.1 18 46.068 18C46.404 18 46.884 18.024 47.508 18.072L50.64 31.572L56.328 18.18H58.704L49.704 39.456C49.008 41.064 48.192 42.42 47.256 43.524C46.344 44.628 45.12 45.18 43.584 45.18ZM68.624 45.216C67.472 45.216 66.536 44.856 65.816 44.136C65.12 43.416 64.772 42.336 64.772 40.896C64.772 40.296 64.868 39.516 65.06 38.556L65.24 37.656C64.544 38.424 63.836 38.952 63.116 39.24C62.396 39.528 61.664 39.672 60.92 39.672C59.768 39.672 58.832 39.312 58.112 38.592C57.416 37.872 57.068 36.792 57.068 35.352C57.068 34.752 57.164 33.972 57.356 33.012L58.616 27H63.8L62.396 33.696C62.324 34.056 62.288 34.392 62.288 34.704C62.288 35.688 62.648 36.18 63.368 36.18C64.064 36.18 64.664 35.892 65.168 35.316C65.696 34.716 66.056 33.948 66.248 33.012L67.508 27H72.692L70.1 39.24C70.004 39.6 69.956 39.984 69.956 40.392C69.956 40.872 70.064 41.22 70.28 41.436C70.52 41.628 70.904 41.724 71.432 41.724C72.104 41.724 72.68 41.436 73.16 40.86C73.664 40.284 74.06 39.516 74.348 38.556H75.86C74.972 41.148 73.868 42.912 72.548 43.848C71.252 44.76 69.944 45.216 68.624 45.216ZM77.9078 45.216C76.7558 45.216 75.8198 44.856 75.0998 44.136C74.4038 43.416 74.0557 42.336 74.0557 40.896C74.0557 40.296 74.1517 39.516 74.3438 38.556L76.7918 27H81.9758L79.3838 39.24C79.3118 39.6 79.2758 39.936 79.2758 40.248C79.2758 41.232 79.6358 41.724 80.3558 41.724C81.0278 41.724 81.6038 41.448 82.0838 40.896C82.5638 40.32 82.9478 39.54 83.2358 38.556L85.6838 27H90.8678L88.2758 39.24C88.1798 39.6 88.1318 39.984 88.1318 40.392C88.1318 40.872 88.2398 41.22 88.4558 41.436C88.6958 41.628 89.0798 41.724 89.6078 41.724C90.2798 41.724 90.8558 41.436 91.3358 40.86C91.8398 40.284 92.2358 39.516 92.5237 38.556H94.0358C93.1478 41.148 92.0438 42.912 90.7238 43.848C89.4278 44.76 88.1198 45.216 86.7998 45.216C85.7678 45.216 84.9398 44.928 84.3158 44.352C83.7158 43.776 83.3558 42.924 83.2358 41.796C82.4198 43.116 81.5558 44.016 80.6438 44.496C79.7558 44.976 78.8438 45.216 77.9078 45.216ZM123.804 38.556C122.292 42.996 120.06 45.216 117.108 45.216C115.74 45.216 114.684 44.856 113.94 44.136C113.22 43.392 112.86 42.48 112.86 41.4C112.86 40.464 113.112 38.868 113.616 36.612L114.66 31.932L108.144 45H103.896L102.924 29.916C102.492 30.42 102.108 31.152 101.772 32.112C101.436 33.048 101.112 34.32 100.8 35.928C100.344 38.28 99.9235 40.08 99.5395 41.328C99.1795 42.576 98.6635 43.536 97.9915 44.208C97.3435 44.88 96.4675 45.216 95.3635 45.216C94.0675 45.216 93.0475 44.82 92.3035 44.028C91.5355 43.212 91.1515 42.228 91.1515 41.076C91.1515 40.26 91.3435 39.612 91.7275 39.132C92.1115 38.628 92.6395 38.376 93.3115 38.376C93.8875 38.376 94.3555 38.556 94.7155 38.916C95.0755 39.276 95.2555 39.708 95.2555 40.212C95.2555 40.788 95.1115 41.232 94.8235 41.544C94.5355 41.832 94.1995 41.952 93.8155 41.904C93.8155 42.816 94.2835 43.272 95.2195 43.272C95.8915 43.272 96.4435 43.032 96.8755 42.552C97.3075 42.048 97.6795 41.232 97.9915 40.104C98.3275 38.976 98.6875 37.344 99.0715 35.208C99.5995 32.16 100.392 30.036 101.448 28.836C102.528 27.612 103.932 27 105.66 27H107.28L107.964 40.824L114.768 27H120.6L118.692 35.928C118.452 36.96 118.248 37.86 118.08 38.628C117.912 39.396 117.828 39.924 117.828 40.212C117.828 41.22 118.308 41.724 119.268 41.724C119.94 41.724 120.48 41.496 120.888 41.04C121.296 40.584 121.764 39.756 122.292 38.556H123.804ZM127.445 45.216C125.669 45.216 124.289 44.76 123.305 43.848C122.321 42.912 121.829 41.46 121.829 39.492C121.829 37.836 122.153 36.012 122.801 34.02C123.473 32.028 124.529 30.312 125.969 28.872C127.433 27.408 129.281 26.676 131.513 26.676C132.953 26.676 133.973 26.988 134.573 27.612C135.197 28.236 135.509 29.028 135.509 29.988C135.509 30.828 135.329 31.476 134.969 31.932C134.609 32.388 134.153 32.616 133.601 32.616C133.193 32.616 132.773 32.472 132.341 32.184C132.629 31.392 132.773 30.684 132.773 30.06C132.773 29.604 132.689 29.244 132.521 28.98C132.353 28.716 132.101 28.584 131.765 28.584C131.045 28.584 130.325 29.172 129.605 30.348C128.885 31.524 128.297 32.952 127.841 34.632C127.385 36.312 127.157 37.824 127.157 39.168C127.157 40.344 127.361 41.148 127.769 41.58C128.177 41.988 128.837 42.192 129.749 42.192C131.045 42.192 132.149 41.892 133.061 41.292C133.997 40.692 135.017 39.78 136.121 38.556H137.345C134.681 42.996 131.381 45.216 127.445 45.216ZM138.777 45.216C137.481 45.216 136.485 44.832 135.789 44.064C135.093 43.272 134.745 42.3 134.745 41.148C134.745 40.284 134.949 39.588 135.357 39.06C135.741 38.532 136.281 38.268 136.977 38.268C137.529 38.268 137.973 38.448 138.309 38.808C138.669 39.144 138.849 39.588 138.849 40.14C138.849 40.716 138.705 41.148 138.417 41.436C138.153 41.724 137.817 41.844 137.409 41.796C137.433 42.108 137.553 42.384 137.769 42.624C137.985 42.84 138.333 42.948 138.813 42.948C139.581 42.948 140.169 42.516 140.577 41.652C141.009 40.788 141.441 39.372 141.873 37.404C140.817 37.188 139.977 36.732 139.353 36.036C138.753 35.34 138.453 34.404 138.453 33.228C138.453 31.38 139.197 29.88 140.685 28.728C142.173 27.576 144.585 27 147.921 27H153.393L151.485 35.928C151.245 36.96 151.041 37.86 150.873 38.628C150.705 39.396 150.621 39.924 150.621 40.212C150.621 41.22 151.101 41.724 152.061 41.724C152.517 41.724 152.925 41.616 153.285 41.4C153.021 43.68 151.893 44.952 149.901 45.216C148.533 45.216 147.477 44.856 146.733 44.136C146.013 43.392 145.653 42.48 145.653 41.4C145.653 40.704 145.869 39.36 146.301 37.368C145.653 37.512 144.981 37.584 144.285 37.584C143.853 39.432 143.433 40.884 143.025 41.94C142.617 42.996 142.077 43.812 141.405 44.388C140.733 44.94 139.857 45.216 138.777 45.216ZM146.049 35.892C146.313 35.892 146.505 35.868 146.625 35.82L148.137 28.944H147.273C145.881 28.944 144.813 29.328 144.069 30.096C143.349 30.84 142.989 31.848 142.989 33.12C142.989 34.968 143.853 35.892 145.581 35.892H146.049ZM38.472 90.144C36.48 90.144 34.98 89.556 33.972 88.38C32.988 87.204 32.496 85.632 32.496 83.664C32.496 81.744 33.012 79.104 34.044 75.744C35.076 72.36 36.444 69.384 38.148 66.816C39.852 64.248 41.688 62.964 43.656 62.964C46.296 62.964 47.616 64.608 47.616 67.896C47.616 70.224 46.632 73.104 44.664 76.536C45.168 76.776 45.624 77.136 46.032 77.616C47.088 77.616 48.228 77.388 49.452 76.932C50.7 76.476 51.756 75.948 52.62 75.348L52.944 76.32C52.296 77.016 51.432 77.628 50.352 78.156C49.296 78.66 48.132 79.02 46.86 79.236C46.98 79.692 47.04 80.292 47.04 81.036C47.04 82.644 46.692 84.144 45.996 85.536C45.3 86.928 44.304 88.044 43.008 88.884C41.712 89.724 40.2 90.144 38.472 90.144ZM40.056 86.904C40.8 86.904 41.448 86.652 42 86.148C42.576 85.644 43.008 85.008 43.296 84.24C43.608 83.472 43.764 82.68 43.764 81.864C43.764 80.976 43.656 80.316 43.44 79.884C43.272 79.956 43.092 80.016 42.9 80.064C42.708 80.088 42.456 80.1 42.144 80.1C41.568 80.1 41.112 79.944 40.776 79.632C40.44 79.32 40.272 78.888 40.272 78.336C40.272 77.616 40.488 77.088 40.92 76.752C41.376 76.416 42 76.224 42.792 76.176C43.488 74.904 44.076 73.5 44.556 71.964C45.06 70.404 45.312 69 45.312 67.752C45.312 67.032 45.216 66.528 45.024 66.24C44.856 65.928 44.556 65.772 44.124 65.772C43.188 65.772 42.228 66.936 41.244 69.264C40.284 71.592 39.48 74.244 38.832 77.22C38.184 80.196 37.86 82.38 37.86 83.772C37.86 85.86 38.592 86.904 40.056 86.904ZM80.4559 83.556C78.9439 87.996 76.7119 90.216 73.7599 90.216C72.3919 90.216 71.3359 89.856 70.5919 89.136C69.8719 88.392 69.5119 87.48 69.5119 86.4C69.5119 85.464 69.7639 83.868 70.2679 81.612L71.3119 76.932L64.7959 90H60.5479L59.5759 74.916C59.1439 75.42 58.7599 76.152 58.4239 77.112C58.0879 78.048 57.7639 79.32 57.4519 80.928C56.9959 83.28 56.5759 85.08 56.1919 86.328C55.8319 87.576 55.3159 88.536 54.6439 89.208C53.9959 89.88 53.1199 90.216 52.0159 90.216C50.7199 90.216 49.6999 89.82 48.9559 89.028C48.1879 88.212 47.8039 87.228 47.8039 86.076C47.8039 85.26 47.9959 84.612 48.3799 84.132C48.7639 83.628 49.2919 83.376 49.9639 83.376C50.5399 83.376 51.0079 83.556 51.3679 83.916C51.7279 84.276 51.9079 84.708 51.9079 85.212C51.9079 85.788 51.7639 86.232 51.4759 86.544C51.1879 86.832 50.8519 86.952 50.4679 86.904C50.4679 87.816 50.9359 88.272 51.8719 88.272C52.5439 88.272 53.0959 88.032 53.5279 87.552C53.9599 87.048 54.3319 86.232 54.6439 85.104C54.9799 83.976 55.3399 82.344 55.7239 80.208C56.2519 77.16 57.0439 75.036 58.0999 73.836C59.1799 72.612 60.5839 72 62.3119 72H63.9319L64.6159 85.824L71.4199 72H77.2519L75.3439 80.928C75.1039 81.96 74.8999 82.86 74.7319 83.628C74.5639 84.396 74.4799 84.924 74.4799 85.212C74.4799 86.22 74.9599 86.724 75.9199 86.724C76.5919 86.724 77.1319 86.496 77.5399 86.04C77.9479 85.584 78.4159 84.756 78.9439 83.556H80.4559ZM84.0972 90.216C82.3212 90.216 80.9412 89.76 79.9572 88.848C78.9732 87.912 78.4812 86.46 78.4812 84.492C78.4812 82.836 78.8052 81.012 79.4532 79.02C80.1012 77.028 81.1572 75.312 82.6212 73.872C84.0852 72.408 85.9452 71.676 88.2012 71.676C90.8412 71.676 92.1612 72.828 92.1612 75.132C92.1612 76.476 91.7772 77.712 91.0092 78.84C90.2412 79.968 89.2212 80.88 87.9492 81.576C86.6772 82.248 85.3212 82.632 83.8812 82.728C83.8332 83.448 83.8092 83.928 83.8092 84.168C83.8092 85.344 84.0132 86.148 84.4212 86.58C84.8292 86.988 85.4892 87.192 86.4012 87.192C87.6972 87.192 88.8012 86.892 89.7132 86.292C90.6492 85.692 91.6692 84.78 92.7732 83.556H93.9972C91.3332 87.996 88.0332 90.216 84.0972 90.216ZM84.1692 81C85.0572 80.952 85.8972 80.64 86.6892 80.064C87.5052 79.488 88.1532 78.756 88.6332 77.868C89.1372 76.98 89.3892 76.044 89.3892 75.06C89.3892 74.076 89.0892 73.584 88.4892 73.584C87.6252 73.584 86.7732 74.34 85.9332 75.852C85.1172 77.364 84.5292 79.08 84.1692 81ZM97.9136 90.216C96.1376 90.216 94.7576 89.76 93.7736 88.848C92.7896 87.912 92.2976 86.46 92.2976 84.492C92.2976 82.836 92.6216 81.012 93.2696 79.02C93.9416 77.028 94.9976 75.312 96.4376 73.872C97.9016 72.408 99.7496 71.676 101.982 71.676C103.422 71.676 104.442 71.988 105.042 72.612C105.666 73.236 105.978 74.028 105.978 74.988C105.978 75.828 105.798 76.476 105.438 76.932C105.078 77.388 104.622 77.616 104.07 77.616C103.662 77.616 103.242 77.472 102.81 77.184C103.098 76.392 103.242 75.684 103.242 75.06C103.242 74.604 103.158 74.244 102.99 73.98C102.822 73.716 102.57 73.584 102.234 73.584C101.514 73.584 100.794 74.172 100.074 75.348C99.3536 76.524 98.7656 77.952 98.3096 79.632C97.8536 81.312 97.6256 82.824 97.6256 84.168C97.6256 85.344 97.8296 86.148 98.2376 86.58C98.6456 86.988 99.3056 87.192 100.218 87.192C101.514 87.192 102.618 86.892 103.53 86.292C104.466 85.692 105.486 84.78 106.59 83.556H107.814C105.15 87.996 101.85 90.216 97.9136 90.216ZM128.47 90.216C127.006 90.216 125.926 89.832 125.23 89.064C124.558 88.272 124.222 87.3 124.222 86.148C124.222 85.644 124.282 85.08 124.402 84.456C124.522 83.808 124.642 83.184 124.762 82.584C124.906 81.984 125.002 81.6 125.05 81.432C125.242 80.592 125.422 79.764 125.59 78.948C125.758 78.132 125.842 77.472 125.842 76.968C125.842 75.744 125.41 75.132 124.546 75.132C123.922 75.132 123.37 75.444 122.89 76.068C122.41 76.668 122.026 77.46 121.738 78.444L119.29 90H114.106L116.734 77.58C116.806 77.292 116.842 76.992 116.842 76.68C116.842 75.624 116.482 75.096 115.762 75.096C115.09 75.096 114.502 75.408 113.998 76.032C113.518 76.632 113.134 77.436 112.846 78.444L110.398 90H105.214L109.03 72H114.214L113.818 73.872C115.042 72.504 116.506 71.82 118.21 71.82C120.322 71.82 121.558 72.852 121.918 74.916C123.238 72.876 124.906 71.856 126.922 71.856C128.146 71.856 129.118 72.192 129.838 72.864C130.558 73.536 130.918 74.556 130.918 75.924C130.918 76.62 130.834 77.4 130.666 78.264C130.498 79.104 130.258 80.136 129.946 81.36C129.754 82.104 129.574 82.836 129.406 83.556C129.262 84.252 129.19 84.804 129.19 85.212C129.19 85.692 129.298 86.064 129.514 86.328C129.73 86.592 130.102 86.724 130.63 86.724C131.35 86.724 131.926 86.472 132.358 85.968C132.79 85.44 133.222 84.636 133.654 83.556H135.166C134.278 86.196 133.246 87.972 132.07 88.884C130.918 89.772 129.718 90.216 128.47 90.216ZM138.728 90.216C136.976 90.216 135.608 89.76 134.624 88.848C133.64 87.912 133.148 86.46 133.148 84.492C133.148 82.836 133.472 81.012 134.12 79.02C134.768 77.028 135.824 75.312 137.288 73.872C138.752 72.408 140.612 71.676 142.868 71.676C145.508 71.676 146.828 72.828 146.828 75.132C146.828 76.476 146.444 77.712 145.676 78.84C144.908 79.968 143.888 80.88 142.616 81.576C141.344 82.248 139.988 82.632 138.548 82.728C138.5 83.256 138.476 83.616 138.476 83.808C138.476 85.8 139.22 86.796 140.708 86.796C141.38 86.796 142.1 86.616 142.868 86.256C143.636 85.896 144.332 85.44 144.956 84.888C144.308 88.44 142.232 90.216 138.728 90.216ZM138.8 81C139.712 80.976 140.564 80.676 141.356 80.1C142.172 79.524 142.82 78.792 143.3 77.904C143.804 76.992 144.056 76.044 144.056 75.06C144.056 74.076 143.756 73.584 143.156 73.584C142.316 73.584 141.476 74.352 140.636 75.888C139.82 77.4 139.208 79.104 138.8 81ZM153.1 63.684L158.644 62.928L153.424 81.684H150.364L153.1 63.684ZM150.868 90.216C150.076 90.216 149.392 89.94 148.816 89.388C148.264 88.812 147.988 88.128 147.988 87.336C147.988 86.544 148.264 85.872 148.816 85.32C149.392 84.768 150.076 84.492 150.868 84.492C151.66 84.492 152.332 84.768 152.884 85.32C153.436 85.872 153.712 86.544 153.712 87.336C153.712 88.128 153.436 88.812 152.884 89.388C152.332 89.94 151.66 90.216 150.868 90.216Z" fill="#646464"/>
<path d="M162.168 75.144C163.064 74.2053 163.768 73.3307 164.28 72.52C164.792 71.7093 165.048 71.048 165.048 70.536C165.048 70.2373 164.941 69.96 164.728 69.704C164.557 69.448 164.28 69.1707 163.896 68.872C163.299 68.4027 162.829 67.912 162.488 67.4C162.147 66.888 161.976 66.2053 161.976 65.352C161.976 64.0293 162.381 62.9627 163.192 62.152C164.003 61.2987 165.027 60.872 166.264 60.872C167.587 60.872 168.653 61.2987 169.464 62.152C170.317 62.9627 170.744 64.0293 170.744 65.352C170.744 67.016 170.04 68.8507 168.632 70.856C167.267 72.8187 165.432 74.568 163.128 76.104L162.168 75.144ZM174.584 75.144C175.48 74.2053 176.184 73.3307 176.696 72.52C177.208 71.7093 177.464 71.048 177.464 70.536C177.464 70.2373 177.357 69.96 177.144 69.704C176.973 69.448 176.696 69.1707 176.312 68.872C175.715 68.4027 175.245 67.912 174.904 67.4C174.563 66.888 174.392 66.2053 174.392 65.352C174.392 64.0293 174.797 62.9627 175.608 62.152C176.419 61.2987 177.443 60.872 178.68 60.872C180.003 60.872 181.069 61.2987 181.88 62.152C182.733 62.9627 183.16 64.0293 183.16 65.352C183.16 67.016 182.456 68.8507 181.048 70.856C179.683 72.8187 177.848 74.568 175.544 76.104L174.584 75.144Z" fill="#646464"/>
</svg>
